<?xml version="1.0"?>
<svg xmlns="http://www.w3.org/2000/svg" version="1.2" baseProfile="tiny" width="800" height="600" viewBox="320 0 60 50" stroke-linecap="round" stroke-linejoin="round">
<g id="departements">
<path d="M 361.4285 28.1972 360.789 28.263 360.5044 27.7053 360.1468 27.4481 360.122 26.7988 360.2287 26.3503 360.6799 24.7133 361.1696 24.739 361.6021 24.5884 362.0864 24.9063 362.0859 25.0951 362.865 25.825 363.1859 25.4869 363.5751 25.8017 364.2467 25.6772 364.7732 24.9719 365.1614 25.2167 364.7009 25.8941 364.4436 26.4528 364.0004 26.6027 364.0226 27.4703 363.8749 28.5709 363.3402 29.1739 363.0443 28.6666 362.3206 27.8102 362.0262 28.3049 361.4285 28.1972 Z" data-insee="01"/>
<path d="M 355.5086 12.5922 354.9805 12.3008 354.5298 11.7842 354.417 11.314 354.101 11.2214 354.0059 10.1288 354.3295 8.8546 354.2536 8.1774 354.0621 7.7878 354.4312 6.5929 355.0339 6.4659 355.9017 6.5163 356.2188 6.2997 357.6562 6.7364 357.9659 6.8422 358.0461 7.1188 357.8897 7.7728 357.9569 8.0331 357.6333 8.2956 357.3799 8.9855 357.3877 9.7086 357.0027 9.7328 356.0311 10.2031 356.248 10.8875 355.922 11.1246 356.0625 11.5999 355.9664 11.9981 355.5086 12.5922 Z" data-insee="02"/>
<path d="M 351.2955 25.1516 351.6099 24.647 352.2417 24.6119 352.5208 23.7696 352.8959 23.4641 353.0975 23.602 353.7144 23.1811 353.9705 23.2301 354.5817 23.8252 355.3359 23.6611 355.4725 23.9593 356.0868 23.454 356.4734 24.2094 356.4598 24.4936 356.9415 24.7902 357.4118 24.9089 357.3693 25.6667 357.0727 25.8912 356.7433 25.9939 356.6998 26.7413 356.8166 27.3809 356.3526 27.6822 355.9688 27.2021 355.5142 27.037 354.3279 26.9766 353.7552 26.7071 353.2045 26.2837 352.3038 26.5917 352.0017 25.8778 351.4023 25.5931 351.2955 25.1516 Z" data-insee="03"/>
<path d="M 367.4254 38.4386 366.6049 38.469 366.5048 38.7682 365.8514 38.4619 365.2082 39.0305 364.7153 38.8154 364.1686 38.8804 363.7645 38.4056 363.5698 37.9404 363.1944 37.7401 363.317 37.3814 363.1385 36.9218 363.4111 36.5401 363.7785 36.5125 364.5123 36.3525 364.5672 35.8193 364.7804 35.4061 365.3516 34.9842 366.4521 34.9704 367.2647 35.0504 367.4359 34.6077 368.3763 33.9197 368.3428 34.3409 368.0628 34.5876 368.2639 35.1387 368.2262 35.4402 367.6447 36.0511 367.541 36.4679 367.7875 37.1124 368.5485 37.8317 368.0094 37.7921 367.6377 37.9884 367.4254 38.4386 Z" data-insee="04"/>
<path d="M 363.7785 36.5125 363.5799 35.812 363.0781 35.78 362.928 35.002 363.4655 35.1044 363.5978 34.3556 364.1511 33.8329 365.3358 32.9772 366.1239 32.8597 365.9436 32.2222 365.563 32.2037 365.7499 31.6008 366.2571 31.9179 366.9013 31.5682 367.0985 31.6304 367.2402 32.0141 367.5489 32.0852 367.5762 32.5768 368.0184 32.9212 368.5412 32.9571 368.6674 33.7164 368.3763 33.9197 367.4359 34.6077 367.2647 35.0504 366.4521 34.9704 365.3516 34.9842 364.7804 35.4061 364.5672 35.8193 364.5123 36.3525 363.7785 36.5125 Z" data-insee="05"/>
<path d="M 368.6149 39.9856 368.3388 39.3653 368.0968 39.2537 367.9388 38.7705 367.4254 38.4386 367.6377 37.9884 368.0094 37.7921 368.5485 37.8317 367.7875 37.1124 367.541 36.4679 367.6447 36.0511 368.2262 35.4402 368.9357 36.0745 370.0355 36.6209 370.8313 36.3824 371.3808 36.7157 371.2286 37.1613 370.6358 37.835 370.7698 38.2973 369.3229 39.2388 369.3731 39.4829 368.7759 39.6317 368.6149 39.9856 Z" data-insee="06"/>
<path d="M 359.9627 35.9032 359.9661 36.2081 359.4112 35.8653 358.7602 35.8786 358.4751 36.2524 358.216 35.9942 357.751 36.0039 357.5424 35.2697 357.2588 34.6923 357.0249 33.8071 357.6296 33.3301 358.0959 33.1251 359.2229 31.5255 359.2575 31.2279 359.7035 31.1287 359.8971 30.6785 360.2334 30.5381 360.4065 30.8899 360.7606 32.7452 360.5419 33.369 360.3234 33.5942 360.4049 34.2114 360.0924 34.722 360.1127 35.3035 359.9627 35.9032 Z" data-insee="07"/>
<path d="M 360.4491 10.5236 360.0862 10.5565 359.2031 10.2722 358.7684 10.3583 358.0458 9.8302 357.3877 9.7086 357.3799 8.9855 357.6333 8.2956 357.9569 8.0331 357.8897 7.7728 358.0461 7.1188 357.9659 6.8422 358.6759 6.936 359.499 6.6138 359.4423 6.2431 359.7084 5.883 360.0895 5.7846 359.8256 6.8047 360.1613 7.051 360.1268 7.6497 360.8708 7.8047 361.1128 8.1447 361.4545 8.1168 361.8875 8.5165 361.4594 8.9179 361.2705 8.7525 360.7802 9.1522 360.9423 9.3478 360.7023 10.3219 360.4491 10.5236 Z" data-insee="08"/>
<path d="M 350.6799 44.5611 350.1534 44.6135 349.5655 44.973 349.2278 45.0068 349.048 44.8087 348.3313 44.5675 347.815 44.5595 347.6072 44.2231 346.8782 44.2628 346.535 43.8735 345.9785 43.823 345.7236 43.6289 345.6164 43.1686 346.2066 42.8709 346.2364 42.3884 346.5012 42.0272 347.4011 42.1267 347.6422 41.1395 348.0761 41.7019 348.1928 41.2681 348.7206 41.4722 348.9153 41.382 349.118 41.89 349.8873 42.1871 350.0191 42.6583 350.0143 43.4832 349.5936 43.569 349.8683 44.1787 350.2686 44.0843 350.6799 44.5611 Z" data-insee="09"/>
<path d="M 355.2816 14.9809 355.2761 14.24 355.7581 13.7882 356.0234 14.1796 356.685 14.323 357.5395 13.3495 358.295 13.2724 358.3553 13.781 358.6422 14.0429 359.5775 14.1901 359.468 14.5825 359.8861 15.039 360.1856 15.1731 360.2862 15.895 360.1416 16.3954 359.8363 16.3189 359.7523 16.8333 359.3198 16.7958 359.2381 17.1166 358.7638 17.1188 358.3365 17.3484 358.0243 17.1069 357.7023 17.3586 357.0658 17.3202 356.6988 16.7592 356.4279 16.1232 356.1623 16.2718 355.9762 15.5846 355.5665 15.0848 355.2816 14.9809 Z" data-insee="10"/>
<path d="M 350.6799 44.5611 350.2686 44.0843 349.8683 44.1787 349.5936 43.569 350.0143 43.4832 350.0191 42.6583 349.8873 42.1871 349.118 41.89 348.9153 41.382 349.41 40.6809 350.2086 40.5572 350.3678 40.7713 351.098 40.4826 351.5898 40.6756 352.2255 40.6484 352.143 41.0504 352.3556 41.2929 352.9983 41.504 353.3625 41.1329 354.7641 41.738 354.1794 42.5414 354.0453 42.9376 354.0228 43.6753 353.3459 43.2596 352.8592 43.6876 351.5115 43.6126 351.4156 44.2082 350.6799 44.5611 Z" data-insee="11"/>
<path d="M 353.6124 39.2463 353.1633 38.8975 352.6688 38.9911 352.2302 38.4837 351.8518 37.401 350.9096 36.9412 350.7029 36.6149 350.1094 36.8715 349.7949 36.5569 349.7207 35.88 349.5808 35.1498 350.4755 34.6139 350.9382 34.4707 351.3813 34.196 351.7751 34.3599 352.2327 33.9162 352.4974 33.1571 352.8617 32.8296 353.3294 33.1976 353.7919 34.3344 354.1667 34.7754 354.3602 35.3065 354.3108 36.193 355.2436 36.782 354.9514 37.3175 355.5355 37.5481 355.1924 38.1109 354.8564 38.199 354.6317 38.6369 354.0996 38.5188 354.0843 39.2567 353.6124 39.2463 Z" data-insee="12"/>
<path d="M 358.4781 40.4216 358.528 40.2083 359.0355 39.9355 359.4167 39.1731 359.8844 39.031 359.9797 38.2898 360.3365 37.9891 361.2269 38.266 361.5053 38.6545 362.0348 38.9239 362.5175 38.9048 362.925 39.1479 363.6155 39.2711 364.1508 38.9129 363.8942 39.4908 364.1933 40.4114 363.9442 40.6027 364.262 41.2736 363.9421 41.7391 363.4271 41.5738 362.7493 41.6276 362.7495 41.1077 362.3016 41.004 361.5361 41.0266 361.2559 40.5443 360.8519 40.6814 360.7596 41.051 359.8185 40.9111 359.6915 40.471 358.4781 40.4216 Z" data-insee="13"/>
<path d="M 340.7591 12.792 339.943 12.6195 339.7302 12.3148 340.0487 12.1102 340.0806 11.6899 340.5663 11.557 340.7007 10.8381 339.8946 10.0644 339.9782 9.6829 340.148 9.4555 340.6365 9.4715 341.1877 9.7197 342.3997 9.8592 342.9572 10.1274 343.6907 9.9737 344.1991 9.5659 344.7551 9.4504 344.7928 10.0073 345.0175 10.3181 345.0434 11.236 345.1797 11.5614 345.0666 11.9433 344.6049 11.849 343.9365 11.9676 343.846 12.1521 343.1223 12.5449 342.2562 12.2426 341.4538 12.3658 340.7591 12.792 Z" data-insee="14"/>
<path d="M 350.9382 34.4707 350.6653 33.9852 350.8096 33.6327 350.4998 33.0685 350.4296 32.6013 350.5534 32.1921 350.8401 32.0384 350.9045 31.4299 351.1996 30.9889 351.8434 30.5142 352.0745 30.0269 352.6297 30.2542 352.8206 30.5282 353.1818 30.4256 353.923 31.0181 354.2348 30.6677 354.26 31.0324 354.6905 31.1324 355.1795 32.6462 354.6872 32.9655 354.2338 33.0843 353.7919 34.3344 353.3294 33.1976 352.8617 32.8296 352.4974 33.1571 352.2327 33.9162 351.7751 34.3599 351.3813 34.196 350.9382 34.4707 Z" data-insee="15"/>
<path d="M 342.948 31.2989 342.5199 30.9951 342.5524 30.7811 341.9207 30.5762 342.0776 29.5666 341.6476 29.0916 341.4424 28.2799 342.5661 28.0458 342.5451 27.4985 342.7103 27.2727 343.0144 26.8343 343.3687 26.6544 343.8132 26.6634 344.5783 26.9286 344.8034 26.5169 345.1604 26.7999 346.0607 26.5636 346.0676 26.9887 346.4643 27.4554 346.0744 27.6274 345.8691 28.29 345.3014 28.6797 344.8231 29.1796 344.8082 29.5424 344.0969 29.9535 343.8634 30.4179 343.9376 30.6983 343.4062 31.236 342.948 31.2989 Z" data-insee="16"/>
<g data-insee="17">
<path d="M 342.948 31.2989 342.7653 31.7573 341.9699 31.6626 341.4002 31.1528 341.4346 30.8372 340.3523 30.4894 340.088 29.7143 339.5278 29.2755 339.359 28.9711 338.6523 28.4925 338.5871 28.0282 339.2146 27.4096 339.3097 26.9418 339.0773 26.297 338.7103 26.1134 339.1294 25.5837 339.1095 25.3733 339.5445 25.1337 339.8259 25.3826 340.4696 25.4441 340.4495 25.7485 340.9057 26.3316 342.4117 26.878 342.7103 27.2727 342.5451 27.4985 342.5661 28.0458 341.4424 28.2799 341.6476 29.0916 342.0776 29.5666 341.9207 30.5762 342.5524 30.7811 342.5199 30.9951 342.948 31.2989 Z"/>
<path d="M 338.7139 27.7043 338.0986 27.1366 338.6574 27.0197 338.7139 27.7043 Z"/>
</g>
<path d="M 350.8934 25.1306 351.0252 24.8173 350.8661 24.4402 350.9713 24.1367 350.5901 23.0039 350.8724 22.6097 350.7143 22.1657 350.2121 21.5017 349.9261 21.6215 349.5449 21.4622 349.7817 21.004 350.9035 20.6123 350.7173 20.1234 351.2292 19.6157 350.9027 19.0475 351.204 18.9492 351.6692 19.134 352.2781 19.192 352.7627 19.6696 353.0438 19.4537 353.4174 19.4854 353.6145 19.886 353.4006 20.4038 353.7529 20.7743 354.1202 22.014 354.0981 22.8023 353.9705 23.2301 353.7144 23.1811 353.0975 23.602 352.8959 23.4641 352.5208 23.7696 352.2417 24.6119 351.6099 24.647 351.2955 25.1516 350.8934 25.1306 Z" data-insee="18"/>
<path d="M 350.4296 32.6013 349.8827 32.5824 349.3713 32.8599 348.86 32.2915 348.1856 32.3451 347.967 31.9025 347.6352 31.7158 347.4244 31.2803 347.4651 30.8726 347.7748 30.4738 347.5218 30.1361 347.8748 30.0253 348.089 29.7202 348.7342 29.5818 349.1908 29.1468 349.8821 28.8651 350.3152 28.5753 351.1595 28.9291 351.8213 28.8822 352.0239 28.6828 352.1235 29.1839 351.9078 29.4144 352.0745 30.0269 351.8434 30.5142 351.1996 30.9889 350.9045 31.4299 350.8401 32.0384 350.5534 32.1921 350.4296 32.6013 Z" data-insee="19"/>
<path d="M 358.1102 21.3337 357.8418 20.9141 357.7327 20.3899 357.6113 20.0005 357.7427 19.54 358.2111 18.7254 358.239 18.2972 358.4904 18.2201 358.3365 17.3484 358.7638 17.1188 359.2381 17.1166 359.3198 16.7958 359.7523 16.8333 360.0481 16.8896 360.6356 17.6064 360.7624 17.9275 360.6554 18.4556 361.0078 18.6226 362.1319 18.9136 362.4926 18.8883 362.4387 20.0524 362.6856 20.4566 362.2515 21.6227 361.9014 21.8042 361.8096 22.1612 361.2473 22.3027 361.0838 22.1699 359.9586 22.5188 359.5548 22.413 358.7829 21.6958 358.1102 21.3337 Z" data-insee="21"/>
<path d="M 331.246 15.0986 331.4367 14.6555 331.1853 14.0418 331.4381 13.2728 331.1265 12.6319 331.4048 12.5922 331.4319 12.0331 331.9655 11.986 332.3583 11.8029 333.1559 11.7222 333.9611 12.8732 333.9508 13.1775 334.5463 13.6043 334.8742 13.271 335.6649 12.9066 336.0678 13.4075 336.3418 13.3153 336.7309 13.5207 336.9266 13.6782 336.9341 14.4331 336.6511 15.004 336.0047 15.1339 335.6209 15.7002 335.1568 15.4574 334.4091 16.1331 334.3596 15.6867 333.992 15.6987 333.5524 15.3905 332.6432 15.3534 331.246 15.0986 Z" data-insee="22"/>
<path d="M 348.2039 25.4849 348.514 25.214 349.0122 25.3077 349.3972 24.974 349.7227 25.1049 350.8934 25.1306 351.2955 25.1516 351.4023 25.5931 352.0017 25.8778 352.3038 26.5917 352.444 27.5043 352.2359 27.8084 351.6575 28.2368 352.0239 28.6828 351.8213 28.8822 351.1595 28.9291 350.3152 28.5753 349.8821 28.8651 349.6849 28.2263 348.9185 28.08 348.8969 27.6305 348.5872 27.2278 348.6338 26.8866 348.3191 26.3438 348.0371 26.159 348.2039 25.4849 Z" data-insee="23"/>
<path d="M 342.7653 31.7573 342.948 31.2989 343.4062 31.236 343.9376 30.6983 343.8634 30.4179 344.0969 29.9535 344.8082 29.5424 344.8231 29.1796 345.3014 28.6797 345.8249 28.9367 345.7251 29.1954 346.7091 29.2597 347.0386 29.8995 347.5218 30.1361 347.7748 30.4738 347.4651 30.8726 347.4244 31.2803 347.6352 31.7158 347.967 31.9025 348.1856 32.3451 348.0567 33.1056 347.6222 33.4792 347.6716 33.7755 346.7673 34.5986 346.4269 34.2386 345.9249 34.4524 345.8358 33.9471 345.5077 34.054 344.9825 33.9197 344.355 34.1787 343.9349 33.5592 343.5632 33.2421 343.0862 33.2006 342.8336 32.9741 343.1727 31.9412 342.7653 31.7573 Z" data-insee="24"/>
<path d="M 363.3238 20.6378 364.1103 20.195 364.4304 20.2536 364.7544 19.9514 365.2029 19.7925 365.503 19.3057 365.7645 19.2119 366.3364 19.3257 366.6598 18.987 367.1351 18.94 367.4685 18.9903 367.6321 19.5857 367.5819 19.9927 367.9021 20.2562 367.386 21.0307 367.0921 21.2331 366.6111 21.9196 366.1865 22.0293 366.0004 23.1633 365.4811 23.5289 365.0088 24.2322 364.6803 23.9858 364.7398 23.5603 365.2114 23.1521 363.8686 21.9448 363.6017 21.5266 363.782 21.2594 363.3238 20.6378 Z" data-insee="25"/>
<path d="M 359.9627 35.9032 360.1127 35.3035 360.0924 34.722 360.4049 34.2114 360.3234 33.5942 360.5419 33.369 360.7606 32.7452 360.4065 30.8899 361.0825 30.633 361.3244 30.7554 361.8371 31.5094 361.7495 31.8827 362.0531 32.0677 362.8618 32.135 362.9733 32.3768 362.8773 33.3973 363.5368 33.7196 364.1511 33.8329 363.5978 34.3556 363.4655 35.1044 362.928 35.002 363.0781 35.78 363.5799 35.812 363.7785 36.5125 363.4111 36.5401 363.1385 36.9218 362.6983 36.4947 361.9224 36.4181 361.4811 35.9771 360.6231 36.4086 360.5365 36.0213 359.9627 35.9032 Z M 360.7723 35.8039 361.1851 36.0388 361.4551 35.6827 361.1339 35.3481 360.7723 35.8039 Z" data-insee="26"/>
<path d="M 344.7551 9.4504 344.9768 9.3869 345.5257 9.2186 345.9878 9.6356 346.3374 9.5517 346.8407 9.744 347.0765 10.4338 347.6677 9.984 348.0303 9.9754 348.1651 9.5516 348.4573 9.424 349.5257 9.6775 349.6971 10.1565 349.4785 10.5927 349.1419 11.3868 348.5871 11.5389 348.7639 12.0875 348.6091 12.4437 348.2777 12.6311 348.1608 13.0066 347.593 12.9523 347.1321 13.1498 346.6102 13.2037 346.3965 13.4297 346.1271 12.8285 345.6543 12.3635 345.0818 12.2728 345.0666 11.9433 345.1797 11.5614 345.0434 11.236 345.0175 10.3181 344.7928 10.0073 344.7551 9.4504 Z" data-insee="27"/>
<path d="M 346.402 16.3671 346.267 15.8884 346.2446 15.1347 346.5834 15.0598 346.8442 14.7008 346.8944 14.2035 346.5059 13.8925 346.3965 13.4297 346.6102 13.2037 347.1321 13.1498 347.593 12.9523 348.1608 13.0066 348.2777 12.6311 348.6091 12.4437 348.7639 12.0875 349.0377 12.5097 348.9968 13.3252 349.6725 14.1121 349.7457 14.5613 350.1594 14.61 350.3483 14.9017 350.3942 15.4971 350.3391 15.9245 350.0036 16.4696 349.5202 16.6368 349.1022 16.5972 348.7346 17.0441 348.2122 17.1807 347.6603 17.0929 347.3141 16.4988 346.8879 16.2939 346.402 16.3671 Z" data-insee="28"/>
<path d="M 331.1265 12.6319 331.4381 13.2728 331.1853 14.0418 331.4367 14.6555 331.246 15.0986 330.6952 15.3861 330.8964 16.108 331.7452 16.3245 331.6665 16.7881 331.1819 17.2655 330.1309 17.0198 329.6881 16.687 329.0294 16.6575 328.9145 16.9067 328.379 16.8506 328.3069 16.2205 328.1016 15.8793 327.7128 15.7497 327.3082 15.3982 328.4683 15.2494 328.7131 14.8205 328.2626 14.5788 327.9765 14.7754 327.6955 14.2882 328.2206 14.2633 328.4008 13.7516 327.7145 13.9994 327.2336 13.7348 327.2316 13.1117 327.4293 12.8287 327.906 12.6034 328.3756 12.5508 328.7963 12.3249 329.0254 12.4936 329.4593 12.3153 330.07 12.4603 330.4174 12.6992 330.5661 12.2981 331.1265 12.6319 Z" data-insee="29"/>
<path d="M 375.1734 45.2803 376.2895 45.6197 376.7556 45.938 377.7846 46.9248 377.8802 47.8108 378.5494 47.7368 378.6353 48.4869 378.333 49.0756 378.0269 50.3299 377.4745 49.9957 376.846 49.7723 376.3006 49.4419 376.2973 49.0899 376.597 48.7385 375.9108 48.5634 376.193 47.9584 376.1268 47.5814 375.6141 47.7095 375.4096 47.4167 375.934 46.9936 375.7991 46.7177 375.2671 46.4503 375.2299 45.9935 375.6556 45.8629 375.1734 45.2803 Z" data-insee="2A"/>
<path d="M 375.1734 45.2803 375.6899 44.3131 376.2463 43.9209 376.7659 43.8126 377.1326 43.3227 377.8956 43.4458 377.9299 42.2977 377.847 41.8776 378.1468 41.7886 378.3536 42.1618 378.4956 42.8699 378.3736 43.4589 378.7618 44.1522 378.8327 45.0198 378.9786 45.5059 379.0115 46.4307 378.5511 47.2609 378.5494 47.7368 377.8802 47.8108 377.7846 46.9248 376.7556 45.938 376.2895 45.6197 375.1734 45.2803 Z" data-insee="2B"/>
<path d="M 355.1924 38.1109 355.5355 37.5481 354.9514 37.3175 355.2436 36.782 355.53 37.0093 356.2074 37.0329 356.2201 36.7475 357.1008 36.9762 357.3307 36.6391 357.2719 36.0703 357.5424 35.2697 357.751 36.0039 358.216 35.9942 358.4751 36.2524 358.7602 35.8786 359.4112 35.8653 359.9661 36.2081 360.1964 36.5215 360.1942 37.0435 360.7038 37.5191 360.3365 37.9891 359.9797 38.2898 359.8844 39.031 359.4167 39.1731 359.0355 39.9355 358.528 40.2083 358.4781 40.4216 358.0943 40.2905 357.9869 39.9426 358.3291 39.422 358.1292 38.9956 357.2865 38.2625 356.5832 37.8003 355.7687 38.1986 355.1924 38.1109 Z" data-insee="30"/>
<path d="M 345.7236 43.6289 345.1608 43.4283 344.9756 43.5351 344.9823 44.3129 344.2433 44.2339 344.2166 43.4498 344.6569 43.364 344.8751 42.7138 344.6114 42.2871 344.194 42.0028 344.6239 41.6118 344.8453 41.0941 345.476 40.564 346.3146 40.6366 346.7506 39.977 347.1174 39.6768 346.6974 39.4154 346.2144 38.6681 346.9762 38.521 347.2312 38.7629 347.7418 38.5364 347.9575 38.2755 348.4793 38.0424 348.5868 38.5663 349.0201 39.0936 349.0906 39.6495 349.5432 39.8721 349.6653 40.1278 350.1628 40.2938 350.2086 40.5572 349.41 40.6809 348.9153 41.382 348.7206 41.4722 348.1928 41.2681 348.0761 41.7019 347.6422 41.1395 347.4011 42.1267 346.5012 42.0272 346.2364 42.3884 346.2066 42.8709 345.6164 43.1686 345.7236 43.6289 Z" data-insee="31"/>
<path d="M 344.8453 41.0941 343.6242 40.6626 343.2559 40.729 343.0219 39.9633 342.7979 39.9552 342.5632 39.4908 342.2497 39.5987 341.7056 39.5634 341.7019 38.9275 341.9196 38.7867 341.9676 37.8055 342.975 37.5545 343.405 37.4051 343.864 37.4545 344.7693 37.2451 345.4646 37.2112 345.7727 37.5746 345.5081 37.8346 345.9836 38.0538 346.2144 38.6681 346.6974 39.4154 347.1174 39.6768 346.7506 39.977 346.3146 40.6366 345.476 40.564 344.8453 41.0941 Z" data-insee="32"/>
<path d="M 342.2191 36.2657 341.7256 36.4142 341.2935 36.318 341.1613 35.7237 340.0881 35.0352 339.6663 35.1598 338.8032 34.5266 338.1641 34.8285 338.1611 34.5252 338.4376 33.8495 339.0366 33.9127 338.5904 33.265 338.1872 33.895 338.7186 30.6288 338.7967 29.6809 339.1345 29.4819 340.0299 30.3623 340.3523 30.4894 341.4346 30.8372 341.4002 31.1528 341.9699 31.6626 342.7653 31.7573 343.1727 31.9412 342.8336 32.9741 343.0862 33.2006 343.5632 33.2421 343.9349 33.5592 343.3921 33.7063 343.3866 34.3002 342.8943 34.6285 342.7248 34.9105 342.8228 35.564 342.4725 35.6183 342.6272 36.0494 342.2191 36.2657 Z" data-insee="33"/>
<path d="M 352.2255 40.6484 352.5836 40.2321 352.4117 39.7338 352.5741 39.4702 352.9367 39.6633 353.6124 39.2463 354.0843 39.2567 354.0996 38.5188 354.6317 38.6369 354.8564 38.199 355.1924 38.1109 355.7687 38.1986 356.5832 37.8003 357.2865 38.2625 358.1292 38.9956 358.3291 39.422 357.9869 39.9426 357.2628 40.1445 356.8722 40.526 356.3581 40.7942 355.7757 41.4262 355.3885 41.3421 354.7641 41.738 353.3625 41.1329 352.9983 41.504 352.3556 41.2929 352.143 41.0504 352.2255 40.6484 Z" data-insee="34"/>
<path d="M 336.1074 18.3302 336.0379 18.0627 336.2609 17.4093 336.0623 16.503 335.6115 16.2524 335.6209 15.7002 336.0047 15.1339 336.6511 15.004 336.9341 14.4331 336.9266 13.6782 336.6808 13.116 337.2649 12.8693 337.2948 13.305 338.2357 13.3105 338.4719 14.0333 338.8373 14.2276 339.2651 13.8133 339.9144 14.0109 339.9524 14.9492 339.7455 15.3438 339.9473 16.6718 339.4708 16.8073 339.1436 17.5893 339.1098 17.758 338.63 17.4664 337.8038 17.7493 337.6256 18.0062 337.0702 17.9821 336.3236 18.1471 336.1074 18.3302 Z" data-insee="35"/>
<path d="M 348.2039 25.4849 347.3576 25.2764 347.2709 24.6641 346.8183 24.4711 346.3883 23.9708 346.3032 23.3652 346.6279 23.4285 346.8666 22.8789 347.1045 21.9788 347.7017 21.9887 348.1095 21.4751 347.9783 21.1446 348.9201 20.6955 349.3532 20.7013 349.7817 21.004 349.5449 21.4622 349.9261 21.6215 350.2121 21.5017 350.7143 22.1657 350.8724 22.6097 350.5901 23.0039 350.9713 24.1367 350.8661 24.4402 351.0252 24.8173 350.8934 25.1306 349.7227 25.1049 349.3972 24.974 349.0122 25.3077 348.514 25.214 348.2039 25.4849 Z" data-insee="36"/>
<path d="M 343.5036 21.1311 343.6139 20.5121 343.8314 20.2515 344.1489 19.4047 344.2026 18.8553 344.7133 19.0802 345.0168 18.7026 345.5574 18.4567 346.4066 18.63 347.0013 18.9458 347.2598 19.8786 347.2233 20.5463 347.6288 20.5807 347.9783 21.1446 348.1095 21.4751 347.7017 21.9887 347.1045 21.9788 346.8666 22.8789 346.6279 23.4285 346.3032 23.3652 345.7533 22.5557 345.7169 22.1816 345.0564 22.2363 344.817 22.3871 344.3517 22.2464 344.343 21.7272 343.5755 21.3387 343.5036 21.1311 Z" data-insee="37"/>
<path d="M 360.4065 30.8899 360.2334 30.5381 360.229 30.0764 360.636 29.6955 360.7334 29.2857 361.1927 29.2184 361.5494 28.7405 361.4285 28.1972 362.0262 28.3049 362.3206 27.8102 363.0443 28.6666 363.3402 29.1739 363.775 29.8921 364.3819 30.1463 364.6039 29.7553 365.1791 30.0083 365.4472 30.3573 365.2368 30.8019 365.2833 31.172 365.7499 31.6008 365.563 32.2037 365.9436 32.2222 366.1239 32.8597 365.3358 32.9772 364.1511 33.8329 363.5368 33.7196 362.8773 33.3973 362.9733 32.3768 362.8618 32.135 362.0531 32.0677 361.7495 31.8827 361.8371 31.5094 361.3244 30.7554 361.0825 30.633 360.4065 30.8899 Z" data-insee="38"/>
<path d="M 362.0864 24.9063 362.2494 24.2266 362.5177 23.9307 362.037 22.5456 361.8096 22.1612 361.9014 21.8042 362.2515 21.6227 362.6856 20.4566 363.0627 20.7096 363.3238 20.6378 363.782 21.2594 363.6017 21.5266 363.8686 21.9448 365.2114 23.1521 364.7398 23.5603 364.6803 23.9858 365.0088 24.2322 364.7732 24.9719 364.2467 25.6772 363.5751 25.8017 363.1859 25.4869 362.865 25.825 362.0859 25.0951 362.0864 24.9063 Z" data-insee="39"/>
<path d="M 336.8934 39.6092 337.2198 39.025 337.7943 36.7663 338.1641 34.8285 338.8032 34.5266 339.6663 35.1598 340.0881 35.0352 341.1613 35.7237 341.2935 36.318 341.7256 36.4142 342.2191 36.2657 342.2469 36.65 343.2239 36.833 342.975 37.5545 341.9676 37.8055 341.9196 38.7867 341.7019 38.9275 341.7056 39.5634 341.3478 39.7261 340.9338 39.4715 340.3753 39.7257 339.729 39.5043 338.8758 39.8497 338.2308 39.6067 337.7555 39.8231 337.2928 39.8036 336.8934 39.6092 Z" data-insee="40"/>
<path d="M 345.5574 18.4567 345.5403 18.2964 346.1347 17.7217 346.0893 17.4181 346.406 17.2031 346.265 16.5258 346.402 16.3671 346.8879 16.2939 347.3141 16.4988 347.6603 17.0929 348.2122 17.1807 348.7346 17.0441 348.9693 17.5843 348.8102 18.1465 349.3835 18.3429 349.4908 18.7404 350.9687 18.6891 351.204 18.9492 350.9027 19.0475 351.2292 19.6157 350.7173 20.1234 350.9035 20.6123 349.7817 21.004 349.3532 20.7013 348.9201 20.6955 347.9783 21.1446 347.6288 20.5807 347.2233 20.5463 347.2598 19.8786 347.0013 18.9458 346.4066 18.63 345.5574 18.4567 Z" data-insee="41"/>
<path d="M 357.118 30.6389 357.3516 30.2259 357.2295 29.4874 356.8359 29.2208 356.4255 28.3503 356.3526 27.6822 356.8166 27.3809 356.6998 26.7413 356.7433 25.9939 357.0727 25.8912 357.041 26.2098 357.5488 26.4261 357.8059 26.2822 358.5664 26.4039 358.8193 26.1556 359.0081 26.4209 358.5928 26.6238 358.4379 27.4019 358.8788 27.986 358.8547 28.7333 358.956 29.1908 359.3573 29.488 359.6999 29.4687 359.8557 29.9263 360.229 30.0764 360.2334 30.5381 359.8971 30.6785 359.7035 31.1287 359.2575 31.2279 358.813 31.0903 358.7558 30.5956 358.1366 30.4402 357.5452 30.7545 357.118 30.6389 Z" data-insee="42"/>
<path d="M 355.1795 32.6462 354.6905 31.1324 354.26 31.0324 354.2348 30.6677 355.1487 30.3144 355.6758 30.2861 356.1052 30.7476 357.118 30.6389 357.5452 30.7545 358.1366 30.4402 358.7558 30.5956 358.813 31.0903 359.2575 31.2279 359.2229 31.5255 358.0959 33.1251 357.6296 33.3301 357.0249 33.8071 356.6078 33.4023 355.6111 33.4783 355.1795 32.6462 Z" data-insee="43"/>
<path d="M 334.7919 19.193 335.3051 19.1402 336.0705 18.8357 336.1074 18.3302 336.3236 18.1471 337.0702 17.9821 337.6256 18.0062 337.8038 17.7493 338.63 17.4664 339.1098 17.758 339.3778 18.4992 339.3456 19.1523 340.0093 19.2806 339.9413 19.8999 339.351 19.8809 338.7763 20.0315 339.229 20.849 338.9567 21.0594 339.2454 21.6317 338.8391 21.3242 338.4364 21.5775 338.4673 21.9601 337.7723 22.4104 336.8099 21.9966 336.3072 21.4608 335.7216 20.6668 335.7316 20.1864 335.2716 20.3417 334.4287 19.9877 334.4109 19.544 334.7919 19.193 Z" data-insee="44"/>
<path d="M 351.204 18.9492 350.9687 18.6891 349.4908 18.7404 349.3835 18.3429 348.8102 18.1465 348.9693 17.5843 348.7346 17.0441 349.1022 16.5972 349.5202 16.6368 350.0036 16.4696 350.3391 15.9245 350.3942 15.4971 350.9724 15.4436 351.1885 15.2491 351.8036 15.3361 351.8887 15.6688 352.212 15.9606 352.2604 16.2725 353.2391 16.3303 353.6383 16.1565 353.9587 16.3115 354.2961 17.166 353.8894 17.4898 353.9547 18.0298 353.3301 18.4172 353.6969 18.8321 353.7725 19.2283 353.4174 19.4854 353.0438 19.4537 352.7627 19.6696 352.2781 19.192 351.6692 19.134 351.204 18.9492 Z" data-insee="45"/>
<path d="M 346.7018 35.6235 346.5246 34.7552 346.7673 34.5986 347.6716 33.7755 347.6222 33.4792 348.0567 33.1056 348.1856 32.3451 348.86 32.2915 349.3713 32.8599 349.8827 32.5824 350.4296 32.6013 350.4998 33.0685 350.8096 33.6327 350.6653 33.9852 350.9382 34.4707 350.4755 34.6139 349.5808 35.1498 349.7207 35.88 349.0563 36.0014 348.6218 36.3346 348.2043 36.1437 347.8324 36.4634 347.4886 36.3808 346.9038 35.9419 346.7018 35.6235 Z" data-insee="46"/>
<path d="M 345.4646 37.2112 344.7693 37.2451 343.864 37.4545 343.405 37.4051 342.975 37.5545 343.2239 36.833 342.2469 36.65 342.2191 36.2657 342.6272 36.0494 342.4725 35.6183 342.8228 35.564 342.7248 34.9105 342.8943 34.6285 343.3866 34.3002 343.3921 33.7063 343.9349 33.5592 344.355 34.1787 344.9825 33.9197 345.5077 34.054 345.8358 33.9471 345.9249 34.4524 346.4269 34.2386 346.7673 34.5986 346.5246 34.7552 346.7018 35.6235 346.2463 35.743 346.269 36.1479 345.9018 36.9004 345.4646 37.2112 Z" data-insee="47"/>
<path d="M 353.7919 34.3344 354.2338 33.0843 354.6872 32.9655 355.1795 32.6462 355.6111 33.4783 356.6078 33.4023 357.0249 33.8071 357.2588 34.6923 357.5424 35.2697 357.2719 36.0703 357.3307 36.6391 357.1008 36.9762 356.2201 36.7475 356.2074 37.0329 355.53 37.0093 355.2436 36.782 354.3108 36.193 354.3602 35.3065 354.1667 34.7754 353.7919 34.3344 Z" data-insee="48"/>
<path d="M 342.936 21.618 342.3085 21.3938 341.8844 21.5453 341.4854 21.4902 341.1846 21.8911 340.1341 21.9537 339.7584 21.7001 339.2454 21.6317 338.9567 21.0594 339.229 20.849 338.7763 20.0315 339.351 19.8809 339.9413 19.8999 340.0093 19.2806 339.3456 19.1523 339.3778 18.4992 339.1098 17.758 339.1436 17.5893 340.0332 17.8818 340.1051 17.7079 341.3036 18.0809 341.756 17.8723 342.1015 17.9882 342.6186 18.2743 342.7349 18.5346 343.3944 18.6223 343.8858 18.9345 344.2026 18.8553 344.1489 19.4047 343.8314 20.2515 343.6139 20.5121 343.5036 21.1311 342.936 21.618 Z" data-insee="49"/>
<path d="M 340.6306 14.0848 339.9144 14.0109 339.2651 13.8133 338.8373 14.2276 338.4719 14.0333 338.2357 13.3105 338.6489 13.3511 338.2615 12.6587 338.2359 12.254 338.379 11.3539 338.2649 11.2337 338.2814 10.3532 337.8163 9.4831 337.4543 8.5182 337.5763 7.9717 338.7041 7.9971 339.0062 7.7818 339.4618 7.847 339.6752 8.3153 339.3916 8.6109 339.9782 9.6829 339.8946 10.0644 340.7007 10.8381 340.5663 11.557 340.0806 11.6899 340.0487 12.1102 339.7302 12.3148 339.943 12.6195 340.7591 12.792 341.0297 13.4796 340.6306 14.0848 Z" data-insee="50"/>
<path d="M 359.5775 14.1901 358.6422 14.0429 358.3553 13.781 358.295 13.2724 357.5395 13.3495 356.685 14.323 356.0234 14.1796 355.7581 13.7882 355.3625 13.569 355.2077 13.0723 355.5086 12.5922 355.9664 11.9981 356.0625 11.5999 355.922 11.1246 356.248 10.8875 356.0311 10.2031 357.0027 9.7328 357.3877 9.7086 358.0458 9.8302 358.7684 10.3583 359.2031 10.2722 360.0862 10.5565 360.4491 10.5236 360.7814 11.8692 360.4032 12.3138 360.6478 13.3778 360.3817 13.3613 359.5775 14.1901 Z" data-insee="51"/>
<path d="M 362.1319 18.9136 361.0078 18.6226 360.6554 18.4556 360.7624 17.9275 360.6356 17.6064 360.0481 16.8896 359.7523 16.8333 359.8363 16.3189 360.1416 16.3954 360.2862 15.895 360.1856 15.1731 359.8861 15.039 359.468 14.5825 359.5775 14.1901 360.3817 13.3613 360.6478 13.3778 360.7137 13.639 362.335 14.6916 362.7607 15.4113 363.2704 15.8573 362.9654 16.3448 363.3289 16.5772 363.8518 17.2024 363.3899 17.7474 363.1687 17.829 363.2227 18.4719 362.2349 18.5612 362.1319 18.9136 Z" data-insee="52"/>
<path d="M 339.1436 17.5893 339.4708 16.8073 339.9473 16.6718 339.7455 15.3438 339.9524 14.9492 339.9144 14.0109 340.6306 14.0848 340.9994 14.4277 341.3048 14.2086 341.8335 14.103 342.3192 14.2012 342.8767 13.8613 343.0576 14.415 343.3646 14.8228 343.0811 14.9016 343.013 15.7245 342.6393 15.9554 342.6933 16.468 342.3907 16.5277 342.4249 16.9394 342.0899 17.1318 342.1015 17.9882 341.756 17.8723 341.3036 18.0809 340.1051 17.7079 340.0332 17.8818 339.1436 17.5893 Z" data-insee="53"/>
<path d="M 363.3341 14.2684 363.1505 13.9337 363.314 13.6349 363.114 12.9925 363.3262 12.5171 363.2228 12.0647 363.4588 11.4897 363.4015 11.0856 363.047 10.5548 363.091 9.8376 362.765 9.4384 362.2656 9.589 362.163 9.127 363.2869 8.8125 363.5855 9.0817 363.7492 9.1848 363.7500469869645 9.203129532142473 363.7815 9.8838 364.0786 10.3692 363.9355 10.6659 363.8869 11.3956 364.5515 11.966 364.944 11.9441 365.1824 12.5198 365.4284 12.7454 365.9115 12.8588 366.9976 13.4453 367.4839 13.4875 367.8261 13.8663 367.9803 13.9763 367.4505 14.222 367.2125 14.5125 366.788 14.6288 366.2762 14.2709 365.5716 14.721 365.2099 14.635 364.0278 14.9986 363.816 14.3212 363.3341 14.2684 Z" data-insee="54"/>
<path d="M 360.6478 13.3778 360.4032 12.3138 360.7814 11.8692 360.4491 10.5236 360.7023 10.3219 360.9423 9.3478 360.7802 9.1522 361.2705 8.7525 361.4594 8.9179 361.8875 8.5165 362.163 9.127 362.2656 9.589 362.765 9.4384 363.091 9.8376 363.047 10.5548 363.4015 11.0856 363.4588 11.4897 363.2228 12.0647 363.3262 12.5171 363.114 12.9925 363.314 13.6349 363.1505 13.9337 363.3341 14.2684 362.829 14.5755 362.335 14.6916 360.7137 13.639 360.6478 13.3778 Z" data-insee="55"/>
<path d="M 331.1819 17.2655 331.6665 16.7881 331.7452 16.3245 330.8964 16.108 330.6952 15.3861 331.246 15.0986 332.6432 15.3534 333.5524 15.3905 333.992 15.6987 334.3596 15.6867 334.4091 16.1331 335.1568 15.4574 335.6209 15.7002 335.6115 16.2524 336.0623 16.503 336.2609 17.4093 336.0379 18.0627 336.1074 18.3302 336.0705 18.8357 335.3051 19.1402 334.7919 19.193 334.5997 18.7706 333.5558 18.9082 333.9554 18.3677 333.6188 18.2059 332.6357 18.4327 331.8171 17.6186 331.4228 17.6571 331.1819 17.2655 Z" data-insee="56"/>
<path d="M 367.8261 13.8663 367.4839 13.4875 366.9976 13.4453 365.9115 12.8588 365.4284 12.7454 365.1824 12.5198 364.944 11.9441 364.5515 11.966 363.8869 11.3956 363.9355 10.6659 364.0786 10.3692 363.7815 9.8838 363.7500469869645 9.203129532142473 363.8908 9.307 364.8033 8.9666 365.385 9.1121 365.8334 9.3895 365.8754 9.7509 366.211 10.0762 366.5051 10.6839 366.8314 10.7324 367.1649 10.3472 367.5983 10.8973 368.3946 10.8396 368.8561 10.4765 369.1948 10.8874 369.5622 11.0885 369.3717 11.6154 368.6599 11.6433 367.6098 11.3199 367.3047 11.9138 367.6479 12.1918 368.4756 12.4973 368.4137 13.5644 368.1303 13.8892 367.8261 13.8663 Z" data-insee="57"/>
<path d="M 356.0868 23.454 355.4725 23.9593 355.3359 23.6611 354.5817 23.8252 353.9705 23.2301 354.0981 22.8023 354.1202 22.014 353.7529 20.7743 353.4006 20.4038 353.6145 19.886 353.4174 19.4854 353.7725 19.2283 354.2099 19.1291 354.4337 19.4947 355.101 19.6917 355.6496 19.4385 355.9095 19.8049 356.3656 20.0744 356.8218 20.0243 357.7327 20.3899 357.8418 20.9141 358.1102 21.3337 358.0122 21.3618 357.7841 21.5048 357.5225 22.2218 357.6153 23.2558 356.6742 23.6944 356.4717 23.4341 356.0868 23.454 Z" data-insee="58"/>
<path d="M 354.4312 6.5929 354.1574 6.3763 354.1633 6.0284 354.4421 5.5018 353.8244 4.6033 354.0517 4.2903 353.7403 3.9993 353.1959 3.9162 353.2302 3.1883 352.9129 3.3785 352.2023 3.3822 351.9802 3.2439 351.2907 2.434 350.8463 1.4053 351.8382 1.2107 352.3741 1.0025 352.6576 1.7497 352.6617 2.4402 352.9092 2.4378 353.1665 2.8916 353.4296 3.0114 354.0498 2.6096 354.3522 2.5944 354.6495 3.1888 354.8007 3.9184 355.1002 4.1081 355.8599 4.0717 356.0306 4.7255 356.8376 4.9445 357.2432 4.7726 357.7728 5.4232 357.6864 5.7939 357.9277 6.294 357.6562 6.7364 356.2188 6.2997 355.9017 6.5163 355.0339 6.4659 354.4312 6.5929 Z" data-insee="59"/>
<path d="M 354.101 11.2214 354.0552 11.3729 352.4684 11.4138 351.5587 10.8831 351.2889 11.0343 350.7832 10.7336 350.3036 10.9267 349.5862 10.789 349.4785 10.5927 349.6971 10.1565 349.5257 9.6775 349.7436 9.3441 349.4656 8.2032 349.7885 7.8754 349.966 8.1333 351.2361 8.1824 352.5683 8.659 353.1832 8.6193 353.5683 8.186 354.2536 8.1774 354.3295 8.8546 354.0059 10.1288 354.101 11.2214 Z" data-insee="60"/>
<path d="M 340.6306 14.0848 341.0297 13.4796 340.7591 12.792 341.4538 12.3658 342.2562 12.2426 343.1223 12.5449 343.846 12.1521 343.9365 11.9676 344.6049 11.849 345.0666 11.9433 345.0818 12.2728 345.6543 12.3635 346.1271 12.8285 346.3965 13.4297 346.5059 13.8925 346.8944 14.2035 346.8442 14.7008 346.5834 15.0598 346.2446 15.1347 346.267 15.8884 345.883 15.5711 345.4093 15.5747 344.8583 15.1258 344.8162 14.5138 344.603 14.3588 343.3646 14.8228 343.0576 14.415 342.8767 13.8613 342.3192 14.2012 341.8335 14.103 341.3048 14.2086 340.9994 14.4277 340.6306 14.0848 Z" data-insee="61"/>
<path d="M 349.3231 4.7343 349.0778 4.5431 349.1735 3.9082 349.1293 2.9883 349.2889 2.624 349.2151 2.1009 349.7001 1.7633 350.8463 1.4053 351.2907 2.434 351.9802 3.2439 352.2023 3.3822 352.9129 3.3785 353.2302 3.1883 353.1959 3.9162 353.7403 3.9993 354.0517 4.2903 353.8244 4.6033 354.4421 5.5018 354.1633 6.0284 354.1574 6.3763 353.5142 6.4609 352.3872 5.9125 352.0402 5.4565 350.8255 5.5967 350.6341 5.2388 349.9057 4.7628 349.3231 4.7343 Z" data-insee="62"/>
<path d="M 357.118 30.6389 356.1052 30.7476 355.6758 30.2861 355.1487 30.3144 354.2348 30.6677 353.923 31.0181 353.1818 30.4256 352.8206 30.5282 352.6297 30.2542 352.0745 30.0269 351.9078 29.4144 352.1235 29.1839 352.0239 28.6828 351.6575 28.2368 352.2359 27.8084 352.444 27.5043 352.3038 26.5917 353.2045 26.2837 353.7552 26.7071 354.3279 26.9766 355.5142 27.037 355.9688 27.2021 356.3526 27.6822 356.4255 28.3503 356.8359 29.2208 357.2295 29.4874 357.3516 30.2259 357.118 30.6389 Z" data-insee="63"/>
<path d="M 336.8934 39.6092 337.2928 39.8036 337.7555 39.8231 338.2308 39.6067 338.8758 39.8497 339.729 39.5043 340.3753 39.7257 340.9338 39.4715 341.3478 39.7261 341.7056 39.5634 342.2497 39.5987 342.6197 40.4423 342.3911 41.0486 342.4889 41.2183 342.1765 41.6919 341.5221 42.3867 341.2468 43.0035 341.28 43.353 340.9572 43.5842 340.5751 43.4718 340.3011 43.6675 339.6477 42.6699 338.9131 42.705 338.2864 42.3044 337.3856 42.2396 336.9585 41.9503 337.1869 41.7066 337.3551 41.0864 336.8898 40.8353 336.4904 41.0278 335.9173 40.3598 336.4253 40.216 336.8934 39.6092 Z" data-insee="64"/>
<path d="M 341.28 43.353 341.2468 43.0035 341.5221 42.3867 342.1765 41.6919 342.4889 41.2183 342.3911 41.0486 342.6197 40.4423 342.2497 39.5987 342.5632 39.4908 342.7979 39.9552 343.0219 39.9633 343.2559 40.729 343.6242 40.6626 344.8453 41.0941 344.6239 41.6118 344.194 42.0028 344.6114 42.2871 344.8751 42.7138 344.6569 43.364 344.2166 43.4498 344.2433 44.2339 343.1176 44.0057 342.4388 44.2487 342.1997 44.1837 341.8705 43.7322 341.28 43.353 Z" data-insee="65"/>
<path d="M 349.2278 45.0068 349.5655 44.973 350.1534 44.6135 350.6799 44.5611 351.4156 44.2082 351.5115 43.6126 352.8592 43.6876 353.3459 43.2596 354.0228 43.6753 354.0533 45.1937 354.4495 45.5423 353.242 45.6346 351.9422 46.23 351.0141 45.7285 350.6331 45.8036 350.0755 46.1631 349.8746 45.7916 349.3626 45.4614 349.2278 45.0068 Z" data-insee="66"/>
<path d="M 367.9803 13.9763 367.8261 13.8663 368.1303 13.8892 368.4137 13.5644 368.4756 12.4973 367.6479 12.1918 367.3047 11.9138 367.6098 11.3199 368.6599 11.6433 369.3717 11.6154 369.5622 11.0885 370.3625 11.1496 370.5705 11.0073 371.502 11.4666 371.2286 12.2156 371.0306 12.3637 370.2758 13.478 370.1038 14.4545 370.1664 14.8004 369.652 15.9201 369.2807 15.5109 368.2932 15.013 367.8616 14.8158 367.9803 13.9763 Z" data-insee="67"/>
<path d="M 368.2769 19.1923 368.096 18.7348 367.8164 18.7029 367.8968 18.0803 367.2041 17.591 367.4556 17.4376 367.4589 16.807 367.9289 16.0759 367.8567 15.9286 368.2932 15.013 369.2807 15.5109 369.652 15.9201 369.6473 16.3606 369.8499 16.6745 369.6507 17.2114 369.5846 18.2606 369.8623 18.6098 369.6067 19.15 369.1878 19.5112 368.4326 19.4945 368.2769 19.1923 Z" data-insee="68"/>
<path d="M 360.229 30.0764 359.8557 29.9263 359.6999 29.4687 359.3573 29.488 358.956 29.1908 358.8547 28.7333 358.8788 27.986 358.4379 27.4019 358.5928 26.6238 359.0081 26.4209 358.8193 26.1556 358.884 25.7782 359.5263 25.8899 359.7587 25.7016 360.2287 26.3503 360.122 26.7988 360.1468 27.4481 360.5044 27.7053 360.789 28.263 361.4285 28.1972 361.5494 28.7405 361.1927 29.2184 360.7334 29.2857 360.636 29.6955 360.229 30.0764 Z" data-insee="69"/>
<path d="M 363.3238 20.6378 363.0627 20.7096 362.6856 20.4566 362.4387 20.0524 362.4926 18.8883 362.1319 18.9136 362.2349 18.5612 363.2227 18.4719 363.1687 17.829 363.3899 17.7474 363.8518 17.2024 364.0231 16.9175 364.7411 16.7042 365.0739 17.1182 365.5084 16.9429 365.9135 17.2879 366.3264 17.0025 367.1273 17.6426 366.917 17.9928 367.1351 18.94 366.6598 18.987 366.3364 19.3257 365.7645 19.2119 365.503 19.3057 365.2029 19.7925 364.7544 19.9514 364.4304 20.2536 364.1103 20.195 363.3238 20.6378 Z" data-insee="70"/>
<path d="M 358.8193 26.1556 358.5664 26.4039 357.8059 26.2822 357.5488 26.4261 357.041 26.2098 357.0727 25.8912 357.3693 25.6667 357.4118 24.9089 356.9415 24.7902 356.4598 24.4936 356.4734 24.2094 356.0868 23.454 356.4717 23.4341 356.6742 23.6944 357.6153 23.2558 357.5225 22.2218 357.7841 21.5048 358.0122 21.3618 358.1102 21.3337 358.7829 21.6958 359.5548 22.413 359.9586 22.5188 361.0838 22.1699 361.2473 22.3027 361.8096 22.1612 362.037 22.5456 362.5177 23.9307 362.2494 24.2266 362.0864 24.9063 361.6021 24.5884 361.1696 24.739 360.6799 24.7133 360.2287 26.3503 359.7587 25.7016 359.5263 25.8899 358.884 25.7782 358.8193 26.1556 Z" data-insee="71"/>
<path d="M 345.5574 18.4567 345.0168 18.7026 344.7133 19.0802 344.2026 18.8553 343.8858 18.9345 343.3944 18.6223 342.7349 18.5346 342.6186 18.2743 342.1015 17.9882 342.0899 17.1318 342.4249 16.9394 342.3907 16.5277 342.6933 16.468 342.6393 15.9554 343.013 15.7245 343.0811 14.9016 343.3646 14.8228 344.603 14.3588 344.8162 14.5138 344.8583 15.1258 345.4093 15.5747 345.883 15.5711 346.267 15.8884 346.402 16.3671 346.265 16.5258 346.406 17.2031 346.0893 17.4181 346.1347 17.7217 345.5403 18.2964 345.5574 18.4567 Z" data-insee="72"/>
<path d="M 363.3402 29.1739 363.8749 28.5709 364.0226 27.4703 364.2018 27.9795 364.8305 28.4689 365.1698 28.3427 365.3757 28.6745 365.8735 28.6664 366.3417 27.657 367.047 28.0869 367.2481 28.451 367.5618 28.1495 367.6683 28.5284 368.3123 28.8291 368.3466 29.5214 369.0304 29.9916 368.8667 30.8476 368.2968 31.0635 367.8953 31.5002 367.59 31.3471 367.0985 31.6304 366.9013 31.5682 366.2571 31.9179 365.7499 31.6008 365.2833 31.172 365.2368 30.8019 365.4472 30.3573 365.1791 30.0083 364.6039 29.7553 364.3819 30.1463 363.775 29.8921 363.3402 29.1739 Z" data-insee="73"/>
<path d="M 367.5618 28.1495 367.2481 28.451 367.047 28.0869 366.3417 27.657 365.8735 28.6664 365.3757 28.6745 365.1698 28.3427 364.8305 28.4689 364.2018 27.9795 364.0226 27.4703 364.0004 26.6027 364.4436 26.4528 365.0528 26.3871 365.6363 25.9258 365.4212 25.6638 365.6314 25.1985 365.957 25.3126 366.3781 24.9642 367.127 24.9141 367.6596 25.5445 367.4589 25.9575 367.5193 26.3365 367.8245 26.3491 368.3945 27.3619 368.2227 27.644 367.6032 27.8498 367.5618 28.1495 Z" data-insee="74"/>
<path d="M 351.8699 12.6034 351.5803 12.7677 351.5437 12.3358 351.8699 12.6034 Z" data-insee="75"/>
<path d="M 344.9768 9.3869 344.1469 9.2841 344.0004 8.9641 344.5027 7.967 344.8909 7.8399 345.7774 7.2988 347.2749 7.0047 347.8455 6.7502 348.4708 6.2631 349.4306 7.027 349.7885 7.8754 349.4656 8.2032 349.7436 9.3441 349.5257 9.6775 348.4573 9.424 348.1651 9.5516 348.0303 9.9754 347.6677 9.984 347.0765 10.4338 346.8407 9.744 346.3374 9.5517 345.9878 9.6356 345.5257 9.2186 344.9768 9.3869 Z" data-insee="76"/>
<path d="M 351.8036 15.3361 352.0879 15.014 352.3946 13.42 352.466 12.8243 352.5065 12.1927 352.3416 11.7743 352.4684 11.4138 354.0552 11.3729 354.101 11.2214 354.417 11.314 354.5298 11.7842 354.9805 12.3008 355.5086 12.5922 355.2077 13.0723 355.3625 13.569 355.7581 13.7882 355.2761 14.24 355.2816 14.9809 355.0101 15.0854 354.0292 15.1408 354.0117 15.5985 353.6383 16.1565 353.2391 16.3303 352.2604 16.2725 352.212 15.9606 351.8887 15.6688 351.8036 15.3361 Z" data-insee="77"/>
<path d="M 350.1594 14.61 349.7457 14.5613 349.6725 14.1121 348.9968 13.3252 349.0377 12.5097 348.7639 12.0875 348.5871 11.5389 349.1419 11.3868 349.5252 11.564 349.8897 11.4034 350.5067 11.8021 350.7501 11.7369 351.1585 12.0767 351.1378 12.2892 350.9664 12.7392 351.2199 12.976 350.9635 13.0841 350.5362 13.5834 350.4917 14.0972 350.1594 14.61 Z" data-insee="78"/>
<path d="M 342.7103 27.2727 342.4117 26.878 340.9057 26.3316 340.4495 25.7485 340.4696 25.4441 340.8044 25.4051 340.9959 24.903 341.0294 23.836 340.1341 21.9537 341.1846 21.8911 341.4854 21.4902 341.8844 21.5453 342.3085 21.3938 342.936 21.618 342.9812 22.0132 343.2329 22.442 343.0735 23.6974 343.2883 23.9614 343.1058 25.0416 343.2284 25.4499 343.5996 25.7665 343.5236 26.0888 343.8132 26.6634 343.3687 26.6544 343.0144 26.8343 342.7103 27.2727 Z" data-insee="79"/>
<path d="M 349.7885 7.8754 349.4306 7.027 348.4708 6.2631 348.9948 5.5139 349.0814 4.7344 349.3231 4.7343 349.9057 4.7628 350.6341 5.2388 350.8255 5.5967 352.0402 5.4565 352.3872 5.9125 353.5142 6.4609 354.1574 6.3763 354.4312 6.5929 354.0621 7.7878 354.2536 8.1774 353.5683 8.186 353.1832 8.6193 352.5683 8.659 351.2361 8.1824 349.966 8.1333 349.7885 7.8754 Z" data-insee="80"/>
<path d="M 350.2086 40.5572 350.1628 40.2938 349.6653 40.1278 349.5432 39.8721 349.0906 39.6495 349.0201 39.0936 348.5868 38.5663 348.4793 38.0424 349.2662 37.074 350.1094 36.8715 350.7029 36.6149 350.9096 36.9412 351.8518 37.401 352.2302 38.4837 352.6688 38.9911 353.1633 38.8975 353.6124 39.2463 352.9367 39.6633 352.5741 39.4702 352.4117 39.7338 352.5836 40.2321 352.2255 40.6484 351.5898 40.6756 351.098 40.4826 350.3678 40.7713 350.2086 40.5572 Z" data-insee="81"/>
<path d="M 346.2144 38.6681 345.9836 38.0538 345.5081 37.8346 345.7727 37.5746 345.4646 37.2112 345.9018 36.9004 346.269 36.1479 346.2463 35.743 346.7018 35.6235 346.9038 35.9419 347.4886 36.3808 347.8324 36.4634 348.2043 36.1437 348.6218 36.3346 349.0563 36.0014 349.7207 35.88 349.7949 36.5569 350.1094 36.8715 349.2662 37.074 348.4793 38.0424 347.9575 38.2755 347.7418 38.5364 347.2312 38.7629 346.9762 38.521 346.2144 38.6681 Z" data-insee="82"/>
<path d="M 363.9421 41.7391 364.262 41.2736 363.9442 40.6027 364.1933 40.4114 363.8942 39.4908 364.1508 38.9129 364.1686 38.8804 364.7153 38.8154 365.2082 39.0305 365.8514 38.4619 366.5048 38.7682 366.6049 38.469 367.4254 38.4386 367.9388 38.7705 368.0968 39.2537 368.3388 39.3653 368.6149 39.9856 368.3511 40.3583 367.9427 40.3296 367.577 41.1035 367.7248 41.5042 367.0498 41.7678 366.1791 41.9556 365.6745 42.1998 365.2182 42.0832 364.4894 42.1018 363.9421 41.7391 Z" data-insee="83"/>
<g data-insee="84">
<path d="M 360.7723 35.8039 361.1339 35.3481 361.4551 35.6827 361.1851 36.0388 360.7723 35.8039 Z"/>
<path d="M 364.1686 38.8804 364.1508 38.9129 363.6155 39.2711 362.925 39.1479 362.5175 38.9048 362.0348 38.9239 361.5053 38.6545 361.2269 38.266 360.3365 37.9891 360.7038 37.5191 360.1942 37.0435 360.1964 36.5215 359.9661 36.2081 359.9627 35.9032 360.5365 36.0213 360.6231 36.4086 361.4811 35.9771 361.9224 36.4181 362.6983 36.4947 363.1385 36.9218 363.317 37.3814 363.1944 37.7401 363.5698 37.9404 363.7645 38.4056 364.1686 38.8804 Z"/>
</g>
<path d="M 336.3072 21.4608 336.8099 21.9966 337.7723 22.4104 338.4673 21.9601 338.4364 21.5775 338.8391 21.3242 339.2454 21.6317 339.7584 21.7001 340.1341 21.9537 341.0294 23.836 340.9959 24.903 340.8044 25.4051 340.4696 25.4441 339.8259 25.3826 339.5445 25.1337 339.1095 25.3733 338.749 25.4981 338.2821 25.123 337.9151 25.1149 337.8031 24.8126 337.3727 24.7125 336.7374 24.253 336.6177 23.6503 336.3454 23.2136 335.6683 22.5179 335.6525 22.146 336.3072 21.4608 Z" data-insee="85"/>
<path d="M 346.0607 26.5636 345.1604 26.7999 344.8034 26.5169 344.5783 26.9286 343.8132 26.6634 343.5236 26.0888 343.5996 25.7665 343.2284 25.4499 343.1058 25.0416 343.2883 23.9614 343.0735 23.6974 343.2329 22.442 342.9812 22.0132 342.936 21.618 343.5036 21.1311 343.5755 21.3387 344.343 21.7272 344.3517 22.2464 344.817 22.3871 345.0564 22.2363 345.7169 22.1816 345.7533 22.5557 346.3032 23.3652 346.3883 23.9708 346.8183 24.4711 347.2709 24.6641 347.3576 25.2764 346.9011 25.4048 346.679 25.7734 346.362 25.7676 345.987 26.1844 346.0607 26.5636 Z" data-insee="86"/>
<path d="M 345.3014 28.6797 345.8691 28.29 346.0744 27.6274 346.4643 27.4554 346.0676 26.9887 346.0607 26.5636 345.987 26.1844 346.362 25.7676 346.679 25.7734 346.9011 25.4048 347.3576 25.2764 348.2039 25.4849 348.0371 26.159 348.3191 26.3438 348.6338 26.8866 348.5872 27.2278 348.8969 27.6305 348.9185 28.08 349.6849 28.2263 349.8821 28.8651 349.1908 29.1468 348.7342 29.5818 348.089 29.7202 347.8748 30.0253 347.5218 30.1361 347.0386 29.8995 346.7091 29.2597 345.7251 29.1954 345.8249 28.9367 345.3014 28.6797 Z" data-insee="87"/>
<path d="M 362.335 14.6916 362.829 14.5755 363.3341 14.2684 363.816 14.3212 364.0278 14.9986 365.2099 14.635 365.5716 14.721 366.2762 14.2709 366.788 14.6288 367.2125 14.5125 367.4505 14.222 367.9803 13.9763 367.8616 14.8158 368.2932 15.013 367.8567 15.9286 367.9289 16.0759 367.4589 16.807 367.4556 17.4376 367.2041 17.591 367.1273 17.6426 366.3264 17.0025 365.9135 17.2879 365.5084 16.9429 365.0739 17.1182 364.7411 16.7042 364.0231 16.9175 363.8518 17.2024 363.3289 16.5772 362.9654 16.3448 363.2704 15.8573 362.7607 15.4113 362.335 14.6916 Z" data-insee="88"/>
<path d="M 353.7725 19.2283 353.6969 18.8321 353.3301 18.4172 353.9547 18.0298 353.8894 17.4898 354.2961 17.166 353.9587 16.3115 353.6383 16.1565 354.0117 15.5985 354.0292 15.1408 355.0101 15.0854 355.2816 14.9809 355.5665 15.0848 355.9762 15.5846 356.1623 16.2718 356.4279 16.1232 356.6988 16.7592 357.0658 17.3202 357.7023 17.3586 358.0243 17.1069 358.3365 17.3484 358.4904 18.2201 358.239 18.2972 358.2111 18.7254 357.7427 19.54 357.6113 20.0005 357.7327 20.3899 356.8218 20.0243 356.3656 20.0744 355.9095 19.8049 355.6496 19.4385 355.101 19.6917 354.4337 19.4947 354.2099 19.1291 353.7725 19.2283 Z" data-insee="89"/>
<path d="M 367.6321 19.5857 367.4685 18.9903 367.1351 18.94 366.917 17.9928 367.1273 17.6426 367.2041 17.591 367.8968 18.0803 367.8164 18.7029 368.096 18.7348 368.2769 19.1923 367.7763 19.2679 367.6321 19.5857 Z" data-insee="90"/>
<path d="M 351.8036 15.3361 351.1885 15.2491 350.9724 15.4436 350.3942 15.4971 350.3483 14.9017 350.1594 14.61 350.4917 14.0972 350.5362 13.5834 350.9635 13.0841 351.2199 12.976 351.5397 13.1204 352.1612 13.195 352.3946 13.42 352.0879 15.014 351.8036 15.3361 Z" data-insee="91"/>
<path d="M 351.5397 13.1204 351.2199 12.976 350.9664 12.7392 351.1378 12.2892 351.4472 12.0731 351.5437 12.3358 351.5803 12.7677 351.5397 13.1204 Z" data-insee="92"/>
<path d="M 351.8699 12.6034 351.5437 12.3358 351.4472 12.0731 352.0199 12.0566 352.3416 11.7743 352.5065 12.1927 352.466 12.8243 352.1418 12.5461 351.8699 12.6034 Z" data-insee="93"/>
<path d="M 351.5397 13.1204 351.5803 12.7677 351.8699 12.6034 352.1418 12.5461 352.466 12.8243 352.3946 13.42 352.1612 13.195 351.5397 13.1204 Z" data-insee="94"/>
<path d="M 349.1419 11.3868 349.4785 10.5927 349.5862 10.789 350.3036 10.9267 350.7832 10.7336 351.2889 11.0343 351.5587 10.8831 352.4684 11.4138 352.3416 11.7743 352.0199 12.0566 351.4472 12.0731 351.1378 12.2892 351.1585 12.0767 350.7501 11.7369 350.5067 11.8021 349.8897 11.4034 349.5252 11.564 349.1419 11.3868 Z" data-insee="95"/>
<g data-insee="971">
<path d="M 30.5532 49.5558 30.3641 49.8936 29.9245 49.7226 30.0221 49.1839 30.4599 49.1274 30.5532 49.5558 Z"/>
<path d="M 28.756 47.7435 28.8548 46.9305 29.497 46.2145 29.604 45.9517 30.0648 45.7517 30.2782 45.9138 30.461 46.8577 31.2545 46.7882 31.4229 46.3289 31.9012 46.3538 31.9673 46.7703 31.5602 47.4019 31.8242 47.8684 31.6706 48.2621 30.6117 47.6441 30.3127 47.0024 29.8148 47.6643 29.4583 47.8951 28.756 47.7435 Z"/>
</g>
<path d="M 25.7783 57.2551 25.2779 57.3828 25.4241 56.9006 24.7561 56.1863 25.2762 55.6198 25.3202 54.8729 25.5464 54.682 25.6032 54.2307 25.9161 54.0742 26.3672 54.519 26.4434 55.4795 26.1516 55.9577 26.3039 56.2015 26.0679 56.9168 25.7783 57.2551 Z" data-insee="972"/>
<path d="M 19.1177 143.9228 17.5359 144.4915 16.7185 144.6949 16.4916 144.5321 15.6887 144.7528 15.5232 145.1473 14.1659 145.6672 12.7102 146.4189 12.3937 146.7297 11.6107 147.05 11.2297 146.9955 10.7981 147.2046 9.8769 147.0616 9.6035 146.9106 9.06 147.0731 8.4555 146.9581 8.0558 146.5112 7.9507 146.0944 7.2763 145.6639 7.5265 145.3819 7.4017 144.4809 7.1039 144.5318 6.3071 144.3605 5.9102 144.0886 5.3561 143.0819 5.3686 142.5084 4.9118 142.3739 3.7001 142.4179 3.1692 142.2864 2.9709 142.0195 2.4388 142.2338 2.2966 141.6485 1.8262 141.4075 1.5083 140.9656 1.5156 140.5741 1 140.0295 1.1099 139.2488 1.5399 139.1976 1.8931 138.9491 2.1783 139.2114 2.7578 139.1475 3.6597 138.6874 4.776 138.4786 5.3007 138.0271 5.8132 137.7847 5.8904 137.5014 6.3777 137.0607 6.4395 136.6194 6.7816 136.4466 7.5168 136.3403 8.7477 136.0391 9.2867 135.3963 9.5747 135.3278 9.3604 134.5357 9.5491 134.3699 9.6156 133.7188 9.4615 132.3593 9.625 131.9347 9.5471 131.5902 10.1744 131.1243 10.0018 130.5936 10.3198 130.5026 10.814 129.852 10.8317 129.3272 11.1617 128.8407 11.5642 128.6934 12.1269 127.915 12.0694 127.571 12.6766 126.8011 13.0394 126.7952 13.4221 126.4393 13.8662 126.2521 15.2506 125.9485 15.883 126.0496 17.7844 125.7004 18.0609 125.2147 18.7796 124.8894 19.5589 125.8207 20.0572 127.1677 20.4634 127.9581 21.132 128.757 21.4202 128.768 21.8626 129.6438 22.0473 130.2259 22.3027 130.4436 22.6144 131.0968 22.6824 132.2779 22.8521 133.0917 22.8783 133.8576 23.066 134.3956 23.1715 135.7225 23.6187 135.8603 23.6674 136.9459 23.9169 137.878 23.9745 138.497 24.2001 138.875 24.4985 138.9264 24.6763 139.7989 24.1421 140.8155 24.2078 141.2133 23.8781 141.6414 23.8239 142.6251 23.0879 143.0477 22.1571 142.9436 21.7021 143.2911 20.9896 143.3953 20.6117 143.3179 20.3832 143.5976 20.0599 143.4748 19.6371 143.7997 19.1177 143.9228 Z" data-insee="973"/>
<path d="M 797.6128 309.3275 797.3947 309.5236 796.114 309.8585 795.7602 309.7965 795.322 309.9975 794.4349 309.7315 794.2473 309.3872 793.2664 309.1085 792.9985 308.8272 793.2031 308.1992 792.815 307.5948 793.0999 307.4394 793.3483 306.637 793.6828 306.2542 794.4631 305.9216 794.8377 305.6451 795.5331 305.4613 796.0646 305.6414 796.4375 305.9964 797.5523 306.3103 797.9709 306.2138 798.287 306.4559 798.4984 307.2391 799 307.7892 798.9443 308.1907 798.3224 308.7975 798.1696 309.1037 797.6128 309.3275 Z" data-insee="974"/>
<path d="M 681.1003 298.0409 680.5372 298.087 680.78 297.6098 680.2724 297.3766 679.8273 296.8823 679.3324 296.6271 679.2653 296.1178 679.8586 296.2883 680.3427 296.0382 680.6927 296.0702 680.7409 296.8696 681.0233 297.2485 681.1003 298.0409 Z" data-insee="976"/>
</g>
</svg>
